<?xml version="1.0" encoding="UTF-8" standalone="no"?>
<!DOCTYPE svg PUBLIC "-//W3C//DTD SVG 1.1//EN"
 "http://www.w3.org/Graphics/SVG/1.1/DTD/svg11.dtd">
<!-- Generated by graphviz version 2.43.0 (0)
 -->
<!-- Title: G Pages: 1 -->
<svg width="1299pt" height="607pt"
 viewBox="0.00 0.00 1299.00 607.00" xmlns="http://www.w3.org/2000/svg" xmlns:xlink="http://www.w3.org/1999/xlink">
<g id="graph0" class="graph" transform="scale(1 1) rotate(0) translate(4 603)">
<title>G</title>
<polygon fill="white" stroke="transparent" points="-4,4 -4,-603 1295,-603 1295,4 -4,4"/>
<!-- data.aws_instance.app_instance -->
<g id="node1" class="node">
<title>data.aws_instance.app_instance</title>
<polygon fill="none" stroke="black" points="1290,-36 1050,-36 1050,0 1290,0 1290,-36"/>
<text text-anchor="middle" x="1170" y="-14.3" font-family="sans-serif" font-size="14.00">data.aws_instance.app_instance</text>
</g>
<!-- data.aws_instances.app_instances -->
<g id="node3" class="node">
<title>data.aws_instances.app_instances</title>
<polygon fill="none" stroke="black" points="993,-36 738,-36 738,0 993,0 993,-36"/>
<text text-anchor="middle" x="865.5" y="-14.3" font-family="sans-serif" font-size="14.00">data.aws_instances.app_instances</text>
</g>
<!-- data.aws_instance.app_instance&#45;&gt;data.aws_instances.app_instances -->
<g id="edge1" class="edge">
<title>data.aws_instance.app_instance&#45;&gt;data.aws_instances.app_instances</title>
<path fill="none" stroke="black" d="M1049.88,-18C1034.62,-18 1018.91,-18 1003.39,-18"/>
<polygon fill="black" stroke="black" points="1003.24,-14.5 993.24,-18 1003.24,-21.5 1003.24,-14.5"/>
</g>
<!-- data.aws_instance.web_instance -->
<g id="node2" class="node">
<title>data.aws_instance.web_instance</title>
<polygon fill="none" stroke="black" points="1291,-90 1049,-90 1049,-54 1291,-54 1291,-90"/>
<text text-anchor="middle" x="1170" y="-68.3" font-family="sans-serif" font-size="14.00">data.aws_instance.web_instance</text>
</g>
<!-- data.aws_instances.web_instances -->
<g id="node4" class="node">
<title>data.aws_instances.web_instances</title>
<polygon fill="none" stroke="black" points="994,-90 737,-90 737,-54 994,-54 994,-90"/>
<text text-anchor="middle" x="865.5" y="-68.3" font-family="sans-serif" font-size="14.00">data.aws_instances.web_instances</text>
</g>
<!-- data.aws_instance.web_instance&#45;&gt;data.aws_instances.web_instances -->
<g id="edge2" class="edge">
<title>data.aws_instance.web_instance&#45;&gt;data.aws_instances.web_instances</title>
<path fill="none" stroke="black" d="M1048.57,-72C1034.12,-72 1019.27,-72 1004.58,-72"/>
<polygon fill="black" stroke="black" points="1004.45,-68.5 994.45,-72 1004.45,-75.5 1004.45,-68.5"/>
</g>
<!-- aws_autoscaling_group.app_asg -->
<g id="node5" class="node">
<title>aws_autoscaling_group.app_asg</title>
<polygon fill="none" stroke="black" points="985,-415 746,-415 746,-379 985,-379 985,-415"/>
<text text-anchor="middle" x="865.5" y="-393.3" font-family="sans-serif" font-size="14.00">aws_autoscaling_group.app_asg</text>
</g>
<!-- aws_launch_template.app_lt -->
<g id="node11" class="node">
<title>aws_launch_template.app_lt</title>
<polygon fill="none" stroke="black" points="646,-192 434,-192 434,-156 646,-156 646,-192"/>
<text text-anchor="middle" x="540" y="-170.3" font-family="sans-serif" font-size="14.00">aws_launch_template.app_lt</text>
</g>
<!-- aws_autoscaling_group.app_asg&#45;&gt;aws_launch_template.app_lt -->
<g id="edge3" class="edge">
<title>aws_autoscaling_group.app_asg&#45;&gt;aws_launch_template.app_lt</title>
<path fill="none" stroke="black" d="M745.92,-388.29C735.62,-383.8 726.06,-377.84 718,-370 662.95,-316.45 736.86,-254.74 682,-201 674.38,-193.53 665.36,-187.81 655.63,-183.45"/>
<polygon fill="black" stroke="black" points="656.69,-180.11 646.1,-179.68 654.11,-186.62 656.69,-180.11"/>
</g>
<!-- aws_subnet.private_subnet -->
<g id="node27" class="node">
<title>aws_subnet.private_subnet</title>
<polygon fill="none" stroke="black" points="643,-500 437,-500 437,-464 643,-464 643,-500"/>
<text text-anchor="middle" x="540" y="-478.3" font-family="sans-serif" font-size="14.00">aws_subnet.private_subnet</text>
</g>
<!-- aws_autoscaling_group.app_asg&#45;&gt;aws_subnet.private_subnet -->
<g id="edge4" class="edge">
<title>aws_autoscaling_group.app_asg&#45;&gt;aws_subnet.private_subnet</title>
<path fill="none" stroke="black" d="M745.63,-413.28C736.08,-416.27 726.75,-419.81 718,-424 698.96,-433.12 701.01,-445.81 682,-455 672.82,-459.44 662.97,-463.15 652.9,-466.24"/>
<polygon fill="black" stroke="black" points="651.83,-462.91 643.19,-469.03 653.77,-469.64 651.83,-462.91"/>
</g>
<!-- aws_autoscaling_group.web_asg -->
<g id="node6" class="node">
<title>aws_autoscaling_group.web_asg</title>
<polygon fill="none" stroke="black" points="986.5,-271 744.5,-271 744.5,-235 986.5,-235 986.5,-271"/>
<text text-anchor="middle" x="865.5" y="-249.3" font-family="sans-serif" font-size="14.00">aws_autoscaling_group.web_asg</text>
</g>
<!-- aws_launch_template.web_lt -->
<g id="node12" class="node">
<title>aws_launch_template.web_lt</title>
<polygon fill="none" stroke="black" points="647,-138 433,-138 433,-102 647,-102 647,-138"/>
<text text-anchor="middle" x="540" y="-116.3" font-family="sans-serif" font-size="14.00">aws_launch_template.web_lt</text>
</g>
<!-- aws_autoscaling_group.web_asg&#45;&gt;aws_launch_template.web_lt -->
<g id="edge5" class="edge">
<title>aws_autoscaling_group.web_asg&#45;&gt;aws_launch_template.web_lt</title>
<path fill="none" stroke="black" d="M839.58,-234.83C805.65,-210.98 742.23,-169.51 682,-147 673.94,-143.99 665.5,-141.3 656.91,-138.9"/>
<polygon fill="black" stroke="black" points="657.73,-135.49 647.17,-136.31 655.94,-142.26 657.73,-135.49"/>
</g>
<!-- aws_subnet.public_subnet -->
<g id="node28" class="node">
<title>aws_subnet.public_subnet</title>
<polygon fill="none" stroke="black" points="356,-354 156,-354 156,-318 356,-318 356,-354"/>
<text text-anchor="middle" x="256" y="-332.3" font-family="sans-serif" font-size="14.00">aws_subnet.public_subnet</text>
</g>
<!-- aws_autoscaling_group.web_asg&#45;&gt;aws_subnet.public_subnet -->
<g id="edge6" class="edge">
<title>aws_autoscaling_group.web_asg&#45;&gt;aws_subnet.public_subnet</title>
<path fill="none" stroke="black" d="M816.47,-271.13C780.1,-284.01 728.62,-300.49 682,-309 575.83,-328.38 452.56,-334.44 366.21,-336.07"/>
<polygon fill="black" stroke="black" points="366.07,-332.57 356.13,-336.24 366.19,-339.57 366.07,-332.57"/>
</g>
<!-- aws_db_instance.rds_instance -->
<g id="node7" class="node">
<title>aws_db_instance.rds_instance</title>
<polygon fill="none" stroke="black" points="1282.5,-279 1057.5,-279 1057.5,-243 1282.5,-243 1282.5,-279"/>
<text text-anchor="middle" x="1170" y="-257.3" font-family="sans-serif" font-size="14.00">aws_db_instance.rds_instance</text>
</g>
<!-- aws_db_subnet_group.db_subnet_group -->
<g id="node8" class="node">
<title>aws_db_subnet_group.db_subnet_group</title>
<polygon fill="none" stroke="black" points="1013,-523 718,-523 718,-487 1013,-487 1013,-523"/>
<text text-anchor="middle" x="865.5" y="-501.3" font-family="sans-serif" font-size="14.00">aws_db_subnet_group.db_subnet_group</text>
</g>
<!-- aws_db_instance.rds_instance&#45;&gt;aws_db_subnet_group.db_subnet_group -->
<g id="edge7" class="edge">
<title>aws_db_instance.rds_instance&#45;&gt;aws_db_subnet_group.db_subnet_group</title>
<path fill="none" stroke="black" d="M1161.67,-279.2C1143.53,-321.73 1092.16,-427.83 1013,-478 1010.54,-479.56 1008.02,-481.03 1005.44,-482.42"/>
<polygon fill="black" stroke="black" points="1003.88,-479.29 996.46,-486.85 1006.98,-485.57 1003.88,-479.29"/>
</g>
<!-- aws_security_group.db_sg -->
<g id="node24" class="node">
<title>aws_security_group.db_sg</title>
<polygon fill="none" stroke="black" points="965,-144 766,-144 766,-108 965,-108 965,-144"/>
<text text-anchor="middle" x="865.5" y="-122.3" font-family="sans-serif" font-size="14.00">aws_security_group.db_sg</text>
</g>
<!-- aws_db_instance.rds_instance&#45;&gt;aws_security_group.db_sg -->
<g id="edge8" class="edge">
<title>aws_db_instance.rds_instance&#45;&gt;aws_security_group.db_sg</title>
<path fill="none" stroke="black" d="M1128.52,-242.93C1073.66,-218.45 975.75,-174.76 916.41,-148.27"/>
<polygon fill="black" stroke="black" points="917.78,-145.05 907.23,-144.18 914.93,-151.45 917.78,-145.05"/>
</g>
<!-- aws_db_subnet_group.db_subnet_group&#45;&gt;aws_subnet.private_subnet -->
<g id="edge9" class="edge">
<title>aws_db_subnet_group.db_subnet_group&#45;&gt;aws_subnet.private_subnet</title>
<path fill="none" stroke="black" d="M717.89,-494.58C696.2,-493.03 674.14,-491.47 653.29,-489.98"/>
<polygon fill="black" stroke="black" points="653.39,-486.48 643.16,-489.26 652.89,-493.46 653.39,-486.48"/>
</g>
<!-- aws_eip.nat_eip -->
<g id="node9" class="node">
<title>aws_eip.nat_eip</title>
<polygon fill="none" stroke="black" points="319,-408 193,-408 193,-372 319,-372 319,-408"/>
<text text-anchor="middle" x="256" y="-386.3" font-family="sans-serif" font-size="14.00">aws_eip.nat_eip</text>
</g>
<!-- aws_internet_gateway.igw -->
<g id="node10" class="node">
<title>aws_internet_gateway.igw</title>
<polygon fill="none" stroke="black" points="354,-246 158,-246 158,-210 354,-210 354,-246"/>
<text text-anchor="middle" x="256" y="-224.3" font-family="sans-serif" font-size="14.00">aws_internet_gateway.igw</text>
</g>
<!-- aws_vpc.main -->
<g id="node29" class="node">
<title>aws_vpc.main</title>
<polygon fill="none" stroke="black" points="114,-404 0,-404 0,-368 114,-368 114,-404"/>
<text text-anchor="middle" x="57" y="-382.3" font-family="sans-serif" font-size="14.00">aws_vpc.main</text>
</g>
<!-- aws_internet_gateway.igw&#45;&gt;aws_vpc.main -->
<g id="edge10" class="edge">
<title>aws_internet_gateway.igw&#45;&gt;aws_vpc.main</title>
<path fill="none" stroke="black" d="M165.63,-246.09C160.14,-248.68 154.88,-251.63 150,-255 112.05,-281.25 84.63,-328.55 70.04,-358.56"/>
<polygon fill="black" stroke="black" points="66.86,-357.11 65.76,-367.64 73.19,-360.09 66.86,-357.11"/>
</g>
<!-- aws_security_group.web_sg -->
<g id="node26" class="node">
<title>aws_security_group.web_sg</title>
<polygon fill="none" stroke="black" points="360.5,-165 151.5,-165 151.5,-129 360.5,-129 360.5,-165"/>
<text text-anchor="middle" x="256" y="-143.3" font-family="sans-serif" font-size="14.00">aws_security_group.web_sg</text>
</g>
<!-- aws_launch_template.app_lt&#45;&gt;aws_security_group.web_sg -->
<g id="edge11" class="edge">
<title>aws_launch_template.app_lt&#45;&gt;aws_security_group.web_sg</title>
<path fill="none" stroke="black" d="M433.99,-163.95C413.4,-161.97 391.72,-159.9 370.85,-157.9"/>
<polygon fill="black" stroke="black" points="370.97,-154.4 360.69,-156.93 370.31,-161.36 370.97,-154.4"/>
</g>
<!-- aws_launch_template.web_lt&#45;&gt;aws_security_group.web_sg -->
<g id="edge12" class="edge">
<title>aws_launch_template.web_lt&#45;&gt;aws_security_group.web_sg</title>
<path fill="none" stroke="black" d="M432.79,-130.17C412.53,-132.11 391.25,-134.15 370.76,-136.11"/>
<polygon fill="black" stroke="black" points="370.4,-132.63 360.78,-137.06 371.07,-139.59 370.4,-132.63"/>
</g>
<!-- aws_lb.app_lb -->
<g id="node13" class="node">
<title>aws_lb.app_lb</title>
<polygon fill="none" stroke="black" points="596.5,-554 483.5,-554 483.5,-518 596.5,-518 596.5,-554"/>
<text text-anchor="middle" x="540" y="-532.3" font-family="sans-serif" font-size="14.00">aws_lb.app_lb</text>
</g>
<!-- aws_security_group.lb_sg -->
<g id="node25" class="node">
<title>aws_security_group.lb_sg</title>
<polygon fill="none" stroke="black" points="353,-544 159,-544 159,-508 353,-508 353,-544"/>
<text text-anchor="middle" x="256" y="-522.3" font-family="sans-serif" font-size="14.00">aws_security_group.lb_sg</text>
</g>
<!-- aws_lb.app_lb&#45;&gt;aws_security_group.lb_sg -->
<g id="edge13" class="edge">
<title>aws_lb.app_lb&#45;&gt;aws_security_group.lb_sg</title>
<path fill="none" stroke="black" d="M483.29,-534.02C449.03,-532.81 404.02,-531.21 363.17,-529.76"/>
<polygon fill="black" stroke="black" points="363.28,-526.27 353.16,-529.41 363.03,-533.26 363.28,-526.27"/>
</g>
<!-- aws_lb.app_lb&#45;&gt;aws_subnet.public_subnet -->
<g id="edge14" class="edge">
<title>aws_lb.app_lb&#45;&gt;aws_subnet.public_subnet</title>
<path fill="none" stroke="black" d="M483.43,-538.85C454.47,-537.33 420.51,-530.36 398,-509 349.52,-463 409.02,-410.49 362,-363 361.07,-362.06 360.11,-361.15 359.12,-360.27"/>
<polygon fill="black" stroke="black" points="361.17,-357.43 351.1,-354.11 356.9,-362.98 361.17,-357.43"/>
</g>
<!-- aws_lb_listener.http -->
<g id="node14" class="node">
<title>aws_lb_listener.http</title>
<polygon fill="none" stroke="black" points="942,-588 789,-588 789,-552 942,-552 942,-588"/>
<text text-anchor="middle" x="865.5" y="-566.3" font-family="sans-serif" font-size="14.00">aws_lb_listener.http</text>
</g>
<!-- aws_lb_listener.http&#45;&gt;aws_lb.app_lb -->
<g id="edge15" class="edge">
<title>aws_lb_listener.http&#45;&gt;aws_lb.app_lb</title>
<path fill="none" stroke="black" d="M788.65,-562.03C733.5,-556.23 659.58,-548.46 606.89,-542.93"/>
<polygon fill="black" stroke="black" points="606.96,-539.41 596.65,-541.85 606.23,-546.38 606.96,-539.41"/>
</g>
<!-- aws_lb_target_group.web_tg -->
<g id="node15" class="node">
<title>aws_lb_target_group.web_tg</title>
<polygon fill="none" stroke="black" points="362,-599 150,-599 150,-563 362,-563 362,-599"/>
<text text-anchor="middle" x="256" y="-577.3" font-family="sans-serif" font-size="14.00">aws_lb_target_group.web_tg</text>
</g>
<!-- aws_lb_listener.http&#45;&gt;aws_lb_target_group.web_tg -->
<g id="edge16" class="edge">
<title>aws_lb_listener.http&#45;&gt;aws_lb_target_group.web_tg</title>
<path fill="none" stroke="black" d="M788.79,-571.37C684.22,-573.26 494.68,-576.7 372.41,-578.91"/>
<polygon fill="black" stroke="black" points="372.2,-575.41 362.26,-579.09 372.32,-582.41 372.2,-575.41"/>
</g>
<!-- aws_lb_target_group.web_tg&#45;&gt;aws_vpc.main -->
<g id="edge17" class="edge">
<title>aws_lb_target_group.web_tg&#45;&gt;aws_vpc.main</title>
<path fill="none" stroke="black" d="M165.69,-562.88C160.12,-560.05 154.83,-556.78 150,-553 104.01,-517.02 77.72,-451.32 65.81,-413.95"/>
<polygon fill="black" stroke="black" points="69.1,-412.75 62.83,-404.21 62.41,-414.8 69.1,-412.75"/>
</g>
<!-- aws_nat_gateway.nat -->
<g id="node16" class="node">
<title>aws_nat_gateway.nat</title>
<polygon fill="none" stroke="black" points="621.5,-392 458.5,-392 458.5,-356 621.5,-356 621.5,-392"/>
<text text-anchor="middle" x="540" y="-370.3" font-family="sans-serif" font-size="14.00">aws_nat_gateway.nat</text>
</g>
<!-- aws_nat_gateway.nat&#45;&gt;aws_eip.nat_eip -->
<g id="edge18" class="edge">
<title>aws_nat_gateway.nat&#45;&gt;aws_eip.nat_eip</title>
<path fill="none" stroke="black" d="M458.19,-378.58C417.62,-380.89 368.85,-383.65 329.5,-385.89"/>
<polygon fill="black" stroke="black" points="329.23,-382.4 319.45,-386.46 329.63,-389.38 329.23,-382.4"/>
</g>
<!-- aws_nat_gateway.nat&#45;&gt;aws_subnet.public_subnet -->
<g id="edge19" class="edge">
<title>aws_nat_gateway.nat&#45;&gt;aws_subnet.public_subnet</title>
<path fill="none" stroke="black" d="M458.19,-363.11C429.6,-359.26 396.95,-354.86 366.39,-350.74"/>
<polygon fill="black" stroke="black" points="366.49,-347.22 356.12,-349.36 365.56,-354.16 366.49,-347.22"/>
</g>
<!-- aws_route.private_route -->
<g id="node17" class="node">
<title>aws_route.private_route</title>
<polygon fill="none" stroke="black" points="956.5,-361 774.5,-361 774.5,-325 956.5,-325 956.5,-361"/>
<text text-anchor="middle" x="865.5" y="-339.3" font-family="sans-serif" font-size="14.00">aws_route.private_route</text>
</g>
<!-- aws_route.private_route&#45;&gt;aws_nat_gateway.nat -->
<g id="edge20" class="edge">
<title>aws_route.private_route&#45;&gt;aws_nat_gateway.nat</title>
<path fill="none" stroke="black" d="M774.39,-351.64C729.8,-355.91 676.12,-361.05 631.49,-365.33"/>
<polygon fill="black" stroke="black" points="631.15,-361.85 621.53,-366.28 631.81,-368.81 631.15,-361.85"/>
</g>
<!-- aws_route_table.private_rt -->
<g id="node19" class="node">
<title>aws_route_table.private_rt</title>
<polygon fill="none" stroke="black" points="639.5,-446 440.5,-446 440.5,-410 639.5,-410 639.5,-446"/>
<text text-anchor="middle" x="540" y="-424.3" font-family="sans-serif" font-size="14.00">aws_route_table.private_rt</text>
</g>
<!-- aws_route.private_route&#45;&gt;aws_route_table.private_rt -->
<g id="edge21" class="edge">
<title>aws_route.private_route&#45;&gt;aws_route_table.private_rt</title>
<path fill="none" stroke="black" d="M774.21,-351.92C755.05,-355.91 735.38,-361.68 718,-370 698.96,-379.12 701.01,-391.81 682,-401 671.85,-405.91 660.88,-409.92 649.7,-413.21"/>
<polygon fill="black" stroke="black" points="648.55,-409.89 639.83,-415.91 650.4,-416.64 648.55,-409.89"/>
</g>
<!-- aws_route.public_route -->
<g id="node18" class="node">
<title>aws_route.public_route</title>
<polygon fill="none" stroke="black" points="628,-246 452,-246 452,-210 628,-210 628,-246"/>
<text text-anchor="middle" x="540" y="-224.3" font-family="sans-serif" font-size="14.00">aws_route.public_route</text>
</g>
<!-- aws_route.public_route&#45;&gt;aws_internet_gateway.igw -->
<g id="edge22" class="edge">
<title>aws_route.public_route&#45;&gt;aws_internet_gateway.igw</title>
<path fill="none" stroke="black" d="M451.7,-228C424.07,-228 393.19,-228 364.32,-228"/>
<polygon fill="black" stroke="black" points="364.2,-224.5 354.2,-228 364.2,-231.5 364.2,-224.5"/>
</g>
<!-- aws_route_table.public_rt -->
<g id="node20" class="node">
<title>aws_route_table.public_rt</title>
<polygon fill="none" stroke="black" points="352,-300 160,-300 160,-264 352,-264 352,-300"/>
<text text-anchor="middle" x="256" y="-278.3" font-family="sans-serif" font-size="14.00">aws_route_table.public_rt</text>
</g>
<!-- aws_route.public_route&#45;&gt;aws_route_table.public_rt -->
<g id="edge23" class="edge">
<title>aws_route.public_route&#45;&gt;aws_route_table.public_rt</title>
<path fill="none" stroke="black" d="M451.7,-244.72C423.07,-250.2 390.97,-256.35 361.22,-262.04"/>
<polygon fill="black" stroke="black" points="360.39,-258.64 351.23,-263.96 361.71,-265.51 360.39,-258.64"/>
</g>
<!-- aws_route_table.private_rt&#45;&gt;aws_vpc.main -->
<g id="edge24" class="edge">
<title>aws_route_table.private_rt&#45;&gt;aws_vpc.main</title>
<path fill="none" stroke="black" d="M440.26,-433.22C361.13,-435.48 247.6,-434.42 150,-417 137.56,-414.78 124.52,-411.2 112.29,-407.25"/>
<polygon fill="black" stroke="black" points="113.29,-403.89 102.69,-404.02 111.05,-410.53 113.29,-403.89"/>
</g>
<!-- aws_route_table.public_rt&#45;&gt;aws_vpc.main -->
<g id="edge25" class="edge">
<title>aws_route_table.public_rt&#45;&gt;aws_vpc.main</title>
<path fill="none" stroke="black" d="M170.64,-300.08C163.51,-302.69 156.53,-305.65 150,-309 124.45,-322.12 99.74,-343.44 82.37,-360.33"/>
<polygon fill="black" stroke="black" points="79.55,-358.19 74.93,-367.73 84.48,-363.16 79.55,-358.19"/>
</g>
<!-- aws_route_table_association.private_rta -->
<g id="node21" class="node">
<title>aws_route_table_association.private_rta</title>
<polygon fill="none" stroke="black" points="1011,-469 720,-469 720,-433 1011,-433 1011,-469"/>
<text text-anchor="middle" x="865.5" y="-447.3" font-family="sans-serif" font-size="14.00">aws_route_table_association.private_rta</text>
</g>
<!-- aws_route_table_association.private_rta&#45;&gt;aws_route_table.private_rt -->
<g id="edge26" class="edge">
<title>aws_route_table_association.private_rta&#45;&gt;aws_route_table.private_rt</title>
<path fill="none" stroke="black" d="M719.78,-440.71C696.29,-439.04 672.32,-437.34 649.88,-435.74"/>
<polygon fill="black" stroke="black" points="649.9,-432.23 639.68,-435.02 649.4,-439.22 649.9,-432.23"/>
</g>
<!-- aws_route_table_association.private_rta&#45;&gt;aws_subnet.private_subnet -->
<g id="edge27" class="edge">
<title>aws_route_table_association.private_rta&#45;&gt;aws_subnet.private_subnet</title>
<path fill="none" stroke="black" d="M719.78,-464.87C697.56,-467 674.91,-469.17 653.52,-471.22"/>
<polygon fill="black" stroke="black" points="653.09,-467.74 643.47,-472.18 653.75,-474.71 653.09,-467.74"/>
</g>
<!-- aws_route_table_association.public_rta -->
<g id="node22" class="node">
<title>aws_route_table_association.public_rta</title>
<polygon fill="none" stroke="black" points="682,-300 398,-300 398,-264 682,-264 682,-300"/>
<text text-anchor="middle" x="540" y="-278.3" font-family="sans-serif" font-size="14.00">aws_route_table_association.public_rta</text>
</g>
<!-- aws_route_table_association.public_rta&#45;&gt;aws_route_table.public_rt -->
<g id="edge28" class="edge">
<title>aws_route_table_association.public_rta&#45;&gt;aws_route_table.public_rt</title>
<path fill="none" stroke="black" d="M397.59,-282C385.68,-282 373.78,-282 362.22,-282"/>
<polygon fill="black" stroke="black" points="362.17,-278.5 352.17,-282 362.17,-285.5 362.17,-278.5"/>
</g>
<!-- aws_route_table_association.public_rta&#45;&gt;aws_subnet.public_subnet -->
<g id="edge29" class="edge">
<title>aws_route_table_association.public_rta&#45;&gt;aws_subnet.public_subnet</title>
<path fill="none" stroke="black" d="M444.71,-300.06C417.9,-305.19 388.55,-310.81 361.19,-316.05"/>
<polygon fill="black" stroke="black" points="360.37,-312.64 351.21,-317.96 361.68,-319.52 360.37,-312.64"/>
</g>
<!-- aws_security_group.app_sg -->
<g id="node23" class="node">
<title>aws_security_group.app_sg</title>
<polygon fill="none" stroke="black" points="643.5,-84 436.5,-84 436.5,-48 643.5,-48 643.5,-84"/>
<text text-anchor="middle" x="540" y="-62.3" font-family="sans-serif" font-size="14.00">aws_security_group.app_sg</text>
</g>
<!-- aws_security_group.app_sg&#45;&gt;aws_security_group.web_sg -->
<g id="edge30" class="edge">
<title>aws_security_group.app_sg&#45;&gt;aws_security_group.web_sg</title>
<path fill="none" stroke="black" d="M436.46,-83.43C423.43,-86.29 410.34,-89.48 398,-93 367.46,-101.7 334.26,-114.25 307.75,-125.07"/>
<polygon fill="black" stroke="black" points="306.21,-121.92 298.3,-128.97 308.88,-128.39 306.21,-121.92"/>
</g>
<!-- aws_security_group.db_sg&#45;&gt;aws_security_group.app_sg -->
<g id="edge31" class="edge">
<title>aws_security_group.db_sg&#45;&gt;aws_security_group.app_sg</title>
<path fill="none" stroke="black" d="M766.38,-107.95C750.22,-104.96 733.64,-101.9 718,-99 695.14,-94.76 670.62,-90.2 647.34,-85.86"/>
<polygon fill="black" stroke="black" points="647.92,-82.41 637.45,-84.02 646.64,-89.29 647.92,-82.41"/>
</g>
<!-- aws_security_group.lb_sg&#45;&gt;aws_vpc.main -->
<g id="edge32" class="edge">
<title>aws_security_group.lb_sg&#45;&gt;aws_vpc.main</title>
<path fill="none" stroke="black" d="M181.74,-507.99C170.63,-503.67 159.67,-498.4 150,-492 118.47,-471.13 91.36,-436.62 74.9,-412.66"/>
<polygon fill="black" stroke="black" points="77.6,-410.41 69.12,-404.05 71.78,-414.31 77.6,-410.41"/>
</g>
<!-- aws_security_group.web_sg&#45;&gt;aws_vpc.main -->
<g id="edge33" class="edge">
<title>aws_security_group.web_sg&#45;&gt;aws_vpc.main</title>
<path fill="none" stroke="black" d="M204.55,-165.08C185.69,-173.73 165.19,-185.61 150,-201 104.91,-246.71 77.89,-318.95 65.72,-358.27"/>
<polygon fill="black" stroke="black" points="62.33,-357.39 62.81,-367.98 69.04,-359.4 62.33,-357.39"/>
</g>
<!-- aws_subnet.private_subnet&#45;&gt;aws_vpc.main -->
<g id="edge34" class="edge">
<title>aws_subnet.private_subnet&#45;&gt;aws_vpc.main</title>
<path fill="none" stroke="black" d="M436.65,-482.07C356.77,-479.44 243.96,-469.76 150,-439 129.26,-432.21 108.04,-420.37 91.2,-409.6"/>
<polygon fill="black" stroke="black" points="93.11,-406.66 82.83,-404.1 89.26,-412.51 93.11,-406.66"/>
</g>
<!-- aws_subnet.public_subnet&#45;&gt;aws_vpc.main -->
<g id="edge35" class="edge">
<title>aws_subnet.public_subnet&#45;&gt;aws_vpc.main</title>
<path fill="none" stroke="black" d="M183.88,-354.05C164.36,-359.01 143.28,-364.36 124.05,-369.24"/>
<polygon fill="black" stroke="black" points="123.02,-365.89 114.19,-371.74 124.74,-372.67 123.02,-365.89"/>
</g>
</g>
</svg>